# xmcd
#
# Track frame offsets:
#	150
#	19997
#	39334
#	57581
#	76433
#	95688
#	115994
#	133117
#	152623
#	171192
#	187214
#	200014
#	218572
#
# Disc length: 3030 seconds
#
# Revision: 0
# Processed by: cddbd v1.4PL0 Copyright (c) Steve Scherf et al.
# Submitted via: dBpowerAMP V4.0
#
DISCID=bc0bd40d
DTITLE=Amaury Gutierrez - Piedras y Flores
DYEAR=2002
DGENRE=Blues
TTITLE0=Aguita de tu boca
TTITLE1=Regresa Pronto
TTITLE2=Dime Corazon
TTITLE3=Me dejo picao
TTITLE4=Guardian de tus sueños
TTITLE5=Tenerte a ti
TTITLE6=Son tus ojos
TTITLE7=Yo no soy
TTITLE8=Hace tiempo
TTITLE9=Piedras y Flores
TTITLE10=Son de la loma
TTITLE11=Amor Espiritual
TTITLE12=Guajira con Tumbao
EXTD=
EXTT0=
EXTT1=
EXTT2=
EXTT3=
EXTT4=
EXTT5=
EXTT6=
EXTT7=
EXTT8=
EXTT9=
EXTT10=
EXTT11=
EXTT12=
PLAYORDER=
